<?xml version="1.0" encoding="UTF-8"?>
<svg width="34px" height="34px" viewBox="0 0 34 34" version="1.1" xmlns="http://www.w3.org/2000/svg" xmlns:xlink="http://www.w3.org/1999/xlink">
    <!-- Generator: Sketch 58 (84663) - https://sketch.com -->
    <title>icon_fmlogo</title>
    <desc>Created with Sketch.</desc>
    <g id="V2" stroke="none" stroke-width="1" fill="none" fill-rule="evenodd">
        <g id="1920" transform="translate(-377.000000, -13.000000)" fill="#FF7241">
            <g id="top" transform="translate(377.000000, 13.000000)">
                <path d="M32,15 C31.914809,20.4730744 28.5653841,25.2081906 23.7194377,27.5051374 C22.670169,28.0035706 21.5428085,28.3524739 20.3742723,28.6099978 C19.5493398,28.7913721 18.6988499,28.8550608 17.829902,28.9049042 L17.829902,28.9049042 L12,34 L13.5007809,27.7280478 L16.5875337,15.0110763 Z M20.8802507,0.278845792 C22.1627738,0.514668485 23.5649991,1.11254837 24.7149949,1.71458984 C24.8646226,1.79227261 24.9600993,1.84914749 25,1.86024503 C22.0088711,1.48847749 19.0034919,2.1903968 16.5738231,4.04368573 C14.200324,5.85564789 12.9706703,8.73140111 11.8777262,11.4146209 L11.7358608,11.763411 L7.57478579,11.7647981 L6.8323474,14.7555848 L10.7796686,14.7611335 C10.7796686,14.7611335 10.7554431,14.8055237 10.4205621,15.9582805 C9.55842156,18.9393568 8.66635547,22.0952193 7.84411565,25 C7.01475069,24.2287211 6.19536092,23.3575643 5.56122448,22.4447918 C3.27548326,19.1488228 2.56867052,15.3354312 3.24555772,11.7800573 C4.19034976,6.81807035 7.80136487,2.37211899 13.3247645,0.674195601 C15.6789069,-0.0499187864 18.2610535,-0.205284325 20.8802507,0.278845792 Z M30.4008771,7.53852099 C31.1003887,8.78753826 31.6054939,10.1846153 31.9070374,11.5452469 L32,11.9971878 L18,12 C18.7646766,9.43109923 20.2451909,5.84841769 22.7889963,4.66168959 C26.4533041,2.95190123 28.85757,4.78542427 30.4008771,7.53852099 Z" id="Followme-Logo"></path>
            </g>
        </g>
    </g>
</svg>